<?xml version="1.0" encoding="UTF-8"?>
<svg version="1.1" xmlns="http://www.w3.org/2000/svg" width="1030" height="1030">
<path d="M0 0 C1.31610764 -0.00701431 2.63221527 -0.01402863 3.98820496 -0.02125549 C8.21479777 -0.04066816 12.44133585 -0.04568947 16.66796875 -0.046875 C17.74706512 -0.04753778 17.74706512 -0.04753778 18.84796143 -0.04821396 C39.99905649 -0.05503171 60.87593889 0.18225968 81.85546875 3.203125 C83.15564941 3.38004883 84.45583008 3.55697266 85.79541016 3.73925781 C104.35001612 6.27453297 122.66545811 9.72634449 140.85546875 14.203125 C141.91362793 14.46319336 142.97178711 14.72326172 144.06201172 14.99121094 C206.37128792 30.54710969 267.25786564 57.7612403 318.85546875 96.203125 C319.6944873 96.82719238 320.53350586 97.45125977 321.39794922 98.09423828 C332.1698564 106.13863708 342.73499991 114.3514465 352.85546875 123.203125 C353.58507812 123.83347656 354.3146875 124.46382813 355.06640625 125.11328125 C357.00756618 126.79741012 358.9340726 128.49649569 360.85546875 130.203125 C362.05623047 131.26466797 362.05623047 131.26466797 363.28125 132.34765625 C368.00359867 136.55405787 372.55720571 140.85993853 376.98828125 145.37109375 C378.7339928 147.08393625 380.53191178 148.64817581 382.41796875 150.203125 C385.65002394 152.90869157 388.31382874 155.92593787 391.0390625 159.1328125 C392.89821527 161.25184683 394.84508274 163.22760117 396.85546875 165.203125 C400.735772 169.03891234 404.31592913 173.05356452 407.85546875 177.203125 C408.63277344 178.09128906 409.41007813 178.97945312 410.2109375 179.89453125 C417.94956884 188.80222413 425.00612592 198.1925641 432.00195312 207.68945312 C433.74190528 210.04911426 435.49328866 212.39988177 437.24609375 214.75 C450.24297992 232.30893925 461.27700752 251.11196909 471.85546875 270.203125 C472.30599609 271.01088379 472.75652344 271.81864258 473.22070312 272.65087891 C510.48385688 339.92855102 532.78423071 420.49740486 533.05859375 497.34765625 C533.06911522 499.3218177 533.06911522 499.3218177 533.07984924 501.33586121 C533.09926191 505.56245402 533.10428322 509.7889921 533.10546875 514.015625 C533.10591061 514.73502258 533.10635246 515.45442017 533.10680771 516.19561768 C533.11362546 537.34671274 532.87633407 558.22359514 529.85546875 579.203125 C529.67854492 580.50330566 529.50162109 581.80348633 529.31933594 583.14306641 C526.78406078 601.69767237 523.33224926 620.01311436 518.85546875 638.203125 C518.59540039 639.26128418 518.33533203 640.31944336 518.06738281 641.40966797 C502.51148406 703.71894417 475.29735345 764.60552189 436.85546875 816.203125 C436.23140137 817.04214355 435.60733398 817.88116211 434.96435547 818.74560547 C426.91995667 829.51751265 418.70714725 840.08265616 409.85546875 850.203125 C409.22511719 850.93273437 408.59476563 851.66234375 407.9453125 852.4140625 C406.26118363 854.35522243 404.56209806 856.28172885 402.85546875 858.203125 C402.14777344 859.00363281 401.44007813 859.80414062 400.7109375 860.62890625 C396.50453588 865.35125492 392.19865522 869.90486196 387.6875 874.3359375 C385.9746575 876.08164905 384.41041794 877.87956803 382.85546875 879.765625 C380.14990218 882.99768019 377.13265588 885.66148499 373.92578125 888.38671875 C371.80674692 890.24587152 369.83099258 892.19273899 367.85546875 894.203125 C364.01968141 898.08342825 360.00502923 901.66358538 355.85546875 905.203125 C354.96730469 905.98042969 354.07914063 906.75773438 353.1640625 907.55859375 C344.25636962 915.29722509 334.86602965 922.35378217 325.36914062 929.34960938 C323.00947949 931.08956153 320.65871198 932.84094491 318.30859375 934.59375 C300.7496545 947.59063617 281.94662466 958.62466377 262.85546875 969.203125 C262.04770996 969.65365234 261.23995117 970.10417969 260.40771484 970.56835938 C193.13004273 1007.83151313 112.56118889 1030.13188696 35.7109375 1030.40625 C33.73677605 1030.41677147 33.73677605 1030.41677147 31.72273254 1030.42750549 C27.49613973 1030.44691816 23.26960165 1030.45193947 19.04296875 1030.453125 C18.32357117 1030.45356686 17.60417358 1030.45400871 16.86297607 1030.45446396 C-4.28811899 1030.46128171 -25.16500139 1030.22399032 -46.14453125 1027.203125 C-47.44471191 1027.02620117 -48.74489258 1026.84927734 -50.08447266 1026.66699219 C-68.63907862 1024.13171703 -86.95452061 1020.67990551 -105.14453125 1016.203125 C-106.20269043 1015.94305664 -107.26084961 1015.68298828 -108.35107422 1015.41503906 C-170.66035042 999.85914031 -231.54692814 972.6450097 -283.14453125 934.203125 C-283.9835498 933.57905762 -284.82256836 932.95499023 -285.68701172 932.31201172 C-296.4589189 924.26761292 -307.02406241 916.0548035 -317.14453125 907.203125 C-317.87414062 906.57277344 -318.60375 905.94242188 -319.35546875 905.29296875 C-321.29662868 903.60883988 -323.2231351 901.90975431 -325.14453125 900.203125 C-325.94503906 899.49542969 -326.74554688 898.78773438 -327.5703125 898.05859375 C-332.29266117 893.85219213 -336.84626821 889.54631147 -341.27734375 885.03515625 C-343.0230553 883.32231375 -344.82097428 881.75807419 -346.70703125 880.203125 C-349.93908644 877.49755843 -352.60289124 874.48031213 -355.328125 871.2734375 C-357.18727777 869.15440317 -359.13414524 867.17864883 -361.14453125 865.203125 C-365.0248345 861.36733766 -368.60499163 857.35268548 -372.14453125 853.203125 C-372.92183594 852.31496094 -373.69914062 851.42679688 -374.5 850.51171875 C-382.23863134 841.60402587 -389.29518842 832.2136859 -396.29101562 822.71679688 C-398.03096778 820.35713574 -399.78235116 818.00636823 -401.53515625 815.65625 C-414.53204242 798.09731075 -425.56607002 779.29428091 -436.14453125 760.203125 C-436.59505859 759.39536621 -437.04558594 758.58760742 -437.50976562 757.75537109 C-474.77291938 690.47769898 -497.07329321 609.90884514 -497.34765625 533.05859375 C-497.35467056 531.74248611 -497.36168488 530.42637848 -497.36891174 529.07038879 C-497.38832441 524.84379598 -497.39334572 520.6172579 -497.39453125 516.390625 C-497.39497311 515.67122742 -497.39541496 514.95182983 -497.39587021 514.21063232 C-497.40268796 493.05953726 -497.16539657 472.18265486 -494.14453125 451.203125 C-493.96760742 449.90294434 -493.79068359 448.60276367 -493.60839844 447.26318359 C-491.07312328 428.70857763 -487.62131176 410.39313564 -483.14453125 392.203125 C-482.75442871 390.61588623 -482.75442871 390.61588623 -482.35644531 388.99658203 C-466.80054656 326.68730583 -439.58641595 265.80072811 -401.14453125 214.203125 C-400.52046387 213.36410645 -399.89639648 212.52508789 -399.25341797 211.66064453 C-391.20901917 200.88873735 -382.99620975 190.32359384 -374.14453125 180.203125 C-373.51417969 179.47351563 -372.88382812 178.74390625 -372.234375 177.9921875 C-370.55024613 176.05102757 -368.85116056 174.12452115 -367.14453125 172.203125 C-366.43683594 171.40261719 -365.72914063 170.60210937 -365 169.77734375 C-360.79359838 165.05499508 -356.48771772 160.50138804 -351.9765625 156.0703125 C-350.26372 154.32460095 -348.69948044 152.52668197 -347.14453125 150.640625 C-344.43896468 147.40856981 -341.42171838 144.74476501 -338.21484375 142.01953125 C-336.09580942 140.16037848 -334.12005508 138.21351101 -332.14453125 136.203125 C-328.30874391 132.32282175 -324.29409173 128.74266462 -320.14453125 125.203125 C-319.25636719 124.42582031 -318.36820313 123.64851563 -317.453125 122.84765625 C-308.54543212 115.10902491 -299.15509215 108.05246783 -289.65820312 101.05664062 C-287.29854199 99.31668847 -284.94777448 97.56530509 -282.59765625 95.8125 C-265.038717 82.81561383 -246.23568716 71.78158623 -227.14453125 61.203125 C-226.33677246 60.75259766 -225.52901367 60.30207031 -224.69677734 59.83789062 C-157.41910523 22.57473687 -76.85025139 0.27436304 0 0 Z " fill="#B1CEC3" transform="translate(497.14453125,-0.203125)"/>
<path d="M0 0 C3.35622353 0.01069558 6.71190806 0.00005195 10.06811523 -0.01269531 C29.37762468 -0.02712766 48.27753254 1.22770487 67.24584961 4.94824219 C67.91434937 5.07734985 68.58284912 5.20645752 69.27160645 5.33947754 C116.11529027 14.41442692 160.36151263 31.47627041 200.55834961 57.26074219 C201.46762207 57.83115234 201.46762207 57.83115234 202.39526367 58.41308594 C218.11672253 68.36853368 231.25294597 82.60637935 242.55834961 97.26074219 C243.43217322 98.31466942 244.3100549 99.36524034 245.19116211 100.41308594 C263.09213158 121.88209245 277.36796666 146.18098644 289.55834961 171.26074219 C290.4314063 172.97006948 291.30615129 174.67853661 292.18334961 176.38574219 C320.45751894 233.49581931 329.56299073 301.32706844 322.55834961 364.26074219 C322.4055957 365.6795166 322.4055957 365.6795166 322.24975586 367.12695312 C314.72048406 435.5643156 286.21912294 501.17893023 242.55834961 554.26074219 C242.12393555 554.79812012 241.68952148 555.33549805 241.24194336 555.88916016 C233.55080671 565.35452768 225.02765899 573.99973567 216.43334961 582.63574219 C215.88049286 583.19386597 215.32763611 583.75198975 214.75802612 584.32702637 C207.69165425 591.44537322 200.43629199 598.03122571 192.55834961 604.26074219 C191.38421739 605.23694577 190.21312483 606.21683035 189.04663086 607.20214844 C167.76025969 624.89768783 143.55018409 639.43259004 118.55834961 651.26074219 C117.82100586 651.61346191 117.08366211 651.96618164 116.32397461 652.32958984 C94.52482623 662.69424365 71.89268252 670.18974856 48.55834961 676.26074219 C47.57326416 676.52072998 46.58817871 676.78071777 45.57324219 677.04858398 C38.71584947 678.81943388 31.86139405 680.19597658 24.87084961 681.32324219 C23.82993164 681.49315674 22.78901367 681.66307129 21.71655273 681.83813477 C13.01800935 683.23362659 4.3278836 684.42176361 -4.44165039 685.26074219 C-5.58762695 685.37289062 -6.73360352 685.48503906 -7.91430664 685.60058594 C-64.76161445 690.11620451 -123.07667242 680.86529206 -175.44165039 658.26074219 C-176.35817383 657.86628906 -177.27469727 657.47183594 -178.21899414 657.06542969 C-212.52841256 641.85038657 -244.17918212 621.95756041 -272.44165039 597.26074219 C-273.27825195 596.53628906 -274.11485352 595.81183594 -274.97680664 595.06542969 C-277.50500126 592.83732972 -279.97662223 590.55852655 -282.44165039 588.26074219 C-282.96339844 587.78894531 -283.48514648 587.31714844 -284.02270508 586.83105469 C-303.77872111 568.86482199 -316.06194398 544.10315122 -327.44165039 520.26074219 C-327.97290527 519.15255127 -327.97290527 519.15255127 -328.51489258 518.02197266 C-335.12736641 504.11126534 -340.54990929 489.86010671 -345.44165039 475.26074219 C-345.75875977 474.32375488 -346.07586914 473.38676758 -346.40258789 472.42138672 C-355.00351097 446.54051079 -360.00121476 418.4834155 -361.44165039 391.26074219 C-361.50046387 390.3488916 -361.55927734 389.43704102 -361.61987305 388.49755859 C-364.92409364 337.19059769 -356.59124959 286.30809887 -338.44165039 238.26074219 C-338.18480469 237.57737793 -337.92795898 236.89401367 -337.66333008 236.18994141 C-324.44522974 201.51575907 -305.58311506 169.21684132 -282.44165039 140.26074219 C-281.72879883 139.36613281 -281.01594727 138.47152344 -280.28149414 137.54980469 C-278.02938889 134.76226243 -275.74516262 132.00597388 -273.44165039 129.26074219 C-272.96356934 128.69097656 -272.48548828 128.12121094 -271.99291992 127.53417969 C-262.512477 116.2856895 -252.6073852 105.43393696 -241.36352539 95.90917969 C-239.99448082 94.73491788 -238.65328529 93.52785463 -237.33227539 92.29980469 C-229.49749351 85.01713831 -221.01589277 78.63625512 -212.44165039 72.26074219 C-211.83804688 71.81053711 -211.23444336 71.36033203 -210.61254883 70.89648438 C-188.24142246 54.30020045 -163.85799928 40.60431814 -138.44165039 29.26074219 C-137.75361328 28.95330078 -137.06557617 28.64585937 -136.35668945 28.32910156 C-110.35445833 16.85863151 -82.78542232 9.52228381 -54.87915039 4.44824219 C-53.81148438 4.25335205 -52.74381836 4.05846191 -51.64379883 3.85766602 C-34.41589351 0.88095895 -17.46971414 -0.06597612 0 0 Z " fill="#3D52A0" transform="translate(525.441650390625,151.7392578125)"/>
<path d="M0 0 C1.31610764 -0.00701431 2.63221527 -0.01402863 3.98820496 -0.02125549 C8.21479777 -0.04066816 12.44133585 -0.04568947 16.66796875 -0.046875 C17.74706512 -0.04753778 17.74706512 -0.04753778 18.84796143 -0.04821396 C39.99905649 -0.05503171 60.87593889 0.18225968 81.85546875 3.203125 C83.15564941 3.38004883 84.45583008 3.55697266 85.79541016 3.73925781 C104.35001612 6.27453297 122.66545811 9.72634449 140.85546875 14.203125 C141.91362793 14.46319336 142.97178711 14.72326172 144.06201172 14.99121094 C206.37128792 30.54710969 267.25786564 57.7612403 318.85546875 96.203125 C319.6944873 96.82719238 320.53350586 97.45125977 321.39794922 98.09423828 C332.1698564 106.13863708 342.73499991 114.3514465 352.85546875 123.203125 C353.58507812 123.83347656 354.3146875 124.46382813 355.06640625 125.11328125 C357.00756618 126.79741012 358.9340726 128.49649569 360.85546875 130.203125 C362.05623047 131.26466797 362.05623047 131.26466797 363.28125 132.34765625 C368.00359867 136.55405787 372.55720571 140.85993853 376.98828125 145.37109375 C378.7339928 147.08393625 380.53191178 148.64817581 382.41796875 150.203125 C385.65002394 152.90869157 388.31382874 155.92593787 391.0390625 159.1328125 C392.89821527 161.25184683 394.84508274 163.22760117 396.85546875 165.203125 C400.735772 169.03891234 404.31592913 173.05356452 407.85546875 177.203125 C408.63277344 178.09128906 409.41007813 178.97945312 410.2109375 179.89453125 C417.94956884 188.80222413 425.00612592 198.1925641 432.00195312 207.68945312 C433.74190528 210.04911426 435.49328866 212.39988177 437.24609375 214.75 C450.24297992 232.30893925 461.27700752 251.11196909 471.85546875 270.203125 C472.30599609 271.01088379 472.75652344 271.81864258 473.22070312 272.65087891 C510.48385688 339.92855102 532.78423071 420.49740486 533.05859375 497.34765625 C533.06911522 499.3218177 533.06911522 499.3218177 533.07984924 501.33586121 C533.09926191 505.56245402 533.10428322 509.7889921 533.10546875 514.015625 C533.10591061 514.73502258 533.10635246 515.45442017 533.10680771 516.19561768 C533.11362546 537.34671274 532.87633407 558.22359514 529.85546875 579.203125 C529.67854492 580.50330566 529.50162109 581.80348633 529.31933594 583.14306641 C526.78406078 601.69767237 523.33224926 620.01311436 518.85546875 638.203125 C518.59540039 639.26128418 518.33533203 640.31944336 518.06738281 641.40966797 C502.51148406 703.71894417 475.29735345 764.60552189 436.85546875 816.203125 C436.23140137 817.04214355 435.60733398 817.88116211 434.96435547 818.74560547 C426.91995667 829.51751265 418.70714725 840.08265616 409.85546875 850.203125 C409.22511719 850.93273437 408.59476563 851.66234375 407.9453125 852.4140625 C406.26118363 854.35522243 404.56209806 856.28172885 402.85546875 858.203125 C402.14777344 859.00363281 401.44007813 859.80414062 400.7109375 860.62890625 C396.50453588 865.35125492 392.19865522 869.90486196 387.6875 874.3359375 C385.9746575 876.08164905 384.41041794 877.87956803 382.85546875 879.765625 C380.14990218 882.99768019 377.13265588 885.66148499 373.92578125 888.38671875 C371.80674692 890.24587152 369.83099258 892.19273899 367.85546875 894.203125 C364.01968141 898.08342825 360.00502923 901.66358538 355.85546875 905.203125 C354.96730469 905.98042969 354.07914063 906.75773438 353.1640625 907.55859375 C344.25636962 915.29722509 334.86602965 922.35378217 325.36914062 929.34960938 C323.00947949 931.08956153 320.65871198 932.84094491 318.30859375 934.59375 C300.7496545 947.59063617 281.94662466 958.62466377 262.85546875 969.203125 C262.04770996 969.65365234 261.23995117 970.10417969 260.40771484 970.56835938 C193.13004273 1007.83151313 112.56118889 1030.13188696 35.7109375 1030.40625 C33.73677605 1030.41677147 33.73677605 1030.41677147 31.72273254 1030.42750549 C27.49613973 1030.44691816 23.26960165 1030.45193947 19.04296875 1030.453125 C18.32357117 1030.45356686 17.60417358 1030.45400871 16.86297607 1030.45446396 C-4.28811899 1030.46128171 -25.16500139 1030.22399032 -46.14453125 1027.203125 C-47.44471191 1027.02620117 -48.74489258 1026.84927734 -50.08447266 1026.66699219 C-68.63907862 1024.13171703 -86.95452061 1020.67990551 -105.14453125 1016.203125 C-106.20269043 1015.94305664 -107.26084961 1015.68298828 -108.35107422 1015.41503906 C-170.66035042 999.85914031 -231.54692814 972.6450097 -283.14453125 934.203125 C-283.9835498 933.57905762 -284.82256836 932.95499023 -285.68701172 932.31201172 C-296.4589189 924.26761292 -307.02406241 916.0548035 -317.14453125 907.203125 C-317.87414062 906.57277344 -318.60375 905.94242188 -319.35546875 905.29296875 C-321.29662868 903.60883988 -323.2231351 901.90975431 -325.14453125 900.203125 C-325.94503906 899.49542969 -326.74554688 898.78773438 -327.5703125 898.05859375 C-332.29266117 893.85219213 -336.84626821 889.54631147 -341.27734375 885.03515625 C-343.0230553 883.32231375 -344.82097428 881.75807419 -346.70703125 880.203125 C-349.93908644 877.49755843 -352.60289124 874.48031213 -355.328125 871.2734375 C-357.18727777 869.15440317 -359.13414524 867.17864883 -361.14453125 865.203125 C-365.0248345 861.36733766 -368.60499163 857.35268548 -372.14453125 853.203125 C-372.92183594 852.31496094 -373.69914062 851.42679688 -374.5 850.51171875 C-382.23863134 841.60402587 -389.29518842 832.2136859 -396.29101562 822.71679688 C-398.03096778 820.35713574 -399.78235116 818.00636823 -401.53515625 815.65625 C-414.53204242 798.09731075 -425.56607002 779.29428091 -436.14453125 760.203125 C-436.59505859 759.39536621 -437.04558594 758.58760742 -437.50976562 757.75537109 C-474.77291938 690.47769898 -497.07329321 609.90884514 -497.34765625 533.05859375 C-497.35467056 531.74248611 -497.36168488 530.42637848 -497.36891174 529.07038879 C-497.38832441 524.84379598 -497.39334572 520.6172579 -497.39453125 516.390625 C-497.39497311 515.67122742 -497.39541496 514.95182983 -497.39587021 514.21063232 C-497.40268796 493.05953726 -497.16539657 472.18265486 -494.14453125 451.203125 C-493.96760742 449.90294434 -493.79068359 448.60276367 -493.60839844 447.26318359 C-491.07312328 428.70857763 -487.62131176 410.39313564 -483.14453125 392.203125 C-482.75442871 390.61588623 -482.75442871 390.61588623 -482.35644531 388.99658203 C-466.80054656 326.68730583 -439.58641595 265.80072811 -401.14453125 214.203125 C-400.52046387 213.36410645 -399.89639648 212.52508789 -399.25341797 211.66064453 C-391.20901917 200.88873735 -382.99620975 190.32359384 -374.14453125 180.203125 C-373.51417969 179.47351563 -372.88382812 178.74390625 -372.234375 177.9921875 C-370.55024613 176.05102757 -368.85116056 174.12452115 -367.14453125 172.203125 C-366.43683594 171.40261719 -365.72914063 170.60210937 -365 169.77734375 C-360.79359838 165.05499508 -356.48771772 160.50138804 -351.9765625 156.0703125 C-350.26372 154.32460095 -348.69948044 152.52668197 -347.14453125 150.640625 C-344.43896468 147.40856981 -341.42171838 144.74476501 -338.21484375 142.01953125 C-336.09580942 140.16037848 -334.12005508 138.21351101 -332.14453125 136.203125 C-328.30874391 132.32282175 -324.29409173 128.74266462 -320.14453125 125.203125 C-319.25636719 124.42582031 -318.36820313 123.64851563 -317.453125 122.84765625 C-308.54543212 115.10902491 -299.15509215 108.05246783 -289.65820312 101.05664062 C-287.29854199 99.31668847 -284.94777448 97.56530509 -282.59765625 95.8125 C-265.038717 82.81561383 -246.23568716 71.78158623 -227.14453125 61.203125 C-226.33677246 60.75259766 -225.52901367 60.30207031 -224.69677734 59.83789062 C-157.41910523 22.57473687 -76.85025139 0.27436304 0 0 Z M-108.14453125 64.203125 C-109.62348877 64.56180664 -109.62348877 64.56180664 -111.13232422 64.92773438 C-165.33297206 78.20275532 -216.57332193 102.67063225 -261.14453125 136.203125 C-261.73766113 136.64462891 -262.33079102 137.08613281 -262.94189453 137.54101562 C-280.01743073 150.26338937 -295.76543553 164.63630752 -310.80932617 179.68261719 C-312.33690541 181.20799213 -313.87236707 182.72513172 -315.40820312 184.2421875 C-321.77293454 190.57129376 -327.54513076 197.17656633 -333.14453125 204.203125 C-334.07933738 205.30493059 -335.02068241 206.4012744 -335.97265625 207.48828125 C-384.96270238 263.66880189 -415.08332648 335.74762342 -427.45703125 408.703125 C-427.58068054 409.42636963 -427.70432983 410.14961426 -427.83172607 410.89477539 C-431.38120774 431.91212195 -432.55548245 452.71090498 -432.51953125 474.015625 C-432.51898743 475.23490692 -432.5184436 476.45418884 -432.5178833 477.7104187 C-432.42831532 521.66930937 -426.33235766 563.25908617 -413.14453125 605.203125 C-412.82307129 606.22712402 -412.50161133 607.25112305 -412.17041016 608.30615234 C-406.88319366 624.9768676 -400.85988674 641.34788931 -393.18261719 657.07568359 C-392.44150225 658.59451604 -391.70576253 660.11597618 -390.97363281 661.63916016 C-382.0212416 680.23499217 -372.01250833 698.29304143 -360.14453125 715.203125 C-359.7676416 715.74308105 -359.39075195 716.28303711 -359.00244141 716.83935547 C-347.0945424 733.8650155 -334.17847901 749.88081482 -320.14453125 765.203125 C-319.67370117 765.71907227 -319.20287109 766.23501953 -318.71777344 766.76660156 C-308.08296461 778.51583585 -308.08296461 778.51583585 -296.51953125 789.328125 C-288.04114774 796.63128703 -280.08839829 804.75530155 -272.84375 813.27734375 C-267.42750868 819.41575058 -261.46992457 825.06137183 -255.25 830.375 C-252.78726097 832.5133337 -250.40965782 834.73397099 -248.01953125 836.953125 C-242.24572377 842.21070485 -236.19817324 847.03883528 -229.99804688 851.78222656 C-228.15924672 853.19184417 -226.33156919 854.61504918 -224.50390625 856.0390625 C-144.88221122 917.50451964 -42.51178002 947.76464069 57.66796875 941.390625 C58.3741333 941.3464444 59.08029785 941.30226379 59.80786133 941.25674438 C81.46911299 939.88368177 102.70445637 937.49634942 123.92675781 932.83837891 C126.69753357 932.23738203 129.47328818 931.67445821 132.25390625 931.12109375 C148.22500111 927.84319632 163.50385333 922.60508837 178.85546875 917.203125 C180.12076416 916.75984863 180.12076416 916.75984863 181.41162109 916.30761719 C234.29848867 897.61371879 281.71290867 867.07949299 322.85546875 829.203125 C323.78311035 828.35113525 323.78311035 828.35113525 324.72949219 827.48193359 C326.83905146 825.54023712 328.94181111 823.59140779 331.04296875 821.640625 C331.70852783 821.02735352 332.37408691 820.41408203 333.05981445 819.78222656 C337.03915261 816.0675839 340.70324751 812.20458259 344.24536133 808.0715332 C346.4581565 805.50375133 348.78475814 803.04832924 351.10546875 800.578125 C356.55882859 794.68461323 361.51770775 788.47496129 366.39453125 782.10107422 C367.90818299 780.1346423 369.44254836 778.18577711 370.98046875 776.23828125 C387.04677184 755.76176339 400.59534586 733.47736462 411.94238281 710.06884766 C412.84089581 708.23290211 413.76125625 706.40993983 414.69140625 704.58984375 C453.64946779 628.11976226 464.3519643 537.72683069 435.73046875 384.5234375 C423.42695065 347.39669163 406.36235175 311.27205047 383.85546875 279.203125 C383.4785791 278.66316895 383.10168945 278.12321289 382.71337891 277.56689453 C370.8054799 260.5412345 357.88941651 244.52543518 343.85546875 229.203125 C343.38463867 228.68717773 342.91380859 228.17123047 342.42871094 227.63964844 C331.79390211 215.89041415 331.79390211 215.89041415 320.23046875 205.078125 C311.77492984 197.79464098 303.84461153 189.69571474 296.62109375 181.1953125 C290.83850055 174.67070513 284.48991067 168.58238659 277.859375 162.9296875 C275.60313489 160.98571454 273.42182982 158.96988982 271.23046875 156.953125 C265.61340137 151.8926268 259.71962864 147.24059073 253.72509766 142.64013672 C252.49245815 141.69272014 251.26288086 140.74130416 250.03662109 139.78564453 C225.73316344 120.85117752 199.36068287 105.40657546 171.46484375 92.43920898 C168.86068702 91.20559694 166.28878197 89.92021542 163.71875 88.6171875 C146.75317467 80.09029234 128.51857148 74.70892872 110.39013672 69.26611328 C107.55271949 68.41281071 104.72103234 67.54406171 101.890625 66.66796875 C35.21892079 46.55657608 -40.90176306 47.48368343 -108.14453125 64.203125 Z " fill="#3D52A0" transform="translate(497.14453125,-0.203125)"/>
<path d="M0 0 C4.73284824 3.44207145 8.24374144 7.56661703 12 12 C12.79277344 12.90492188 13.58554687 13.80984375 14.40234375 14.7421875 C32.33140893 35.33002481 46.79731351 58.18176432 60 82 C60.43119141 82.7744043 60.86238281 83.54880859 61.30664062 84.34667969 C66.03446993 92.88283134 70.18812861 101.42338958 73.67578125 110.5390625 C74.85729882 113.62704058 76.12460654 116.65382384 77.4375 119.6875 C88.12753227 145.43920712 94.69951439 172.49708218 99 200 C99.16516113 201.02915527 99.33032227 202.05831055 99.50048828 203.11865234 C104.87776045 238.20159971 103.62603272 275.03900402 98 310 C97.76852365 311.59992796 97.53901525 313.20014338 97.3125 314.80078125 C87.96791014 377.1716844 58.68962947 436.48424603 19 485 C18.56268555 485.54172852 18.12537109 486.08345703 17.67480469 486.64160156 C9.98646582 496.10201561 1.465342 504.74298012 -7.125 513.375 C-7.67785675 513.93312378 -8.2307135 514.49124756 -8.80032349 515.06628418 C-15.86594768 522.18387786 -23.11595104 528.77925251 -31 535 C-32.231806 536.01242225 -33.46131616 537.02765078 -34.6875 538.046875 C-62.71595727 561.03861143 -95.15965807 580.00971752 -129 593 C-129.91620117 593.35513672 -130.83240234 593.71027344 -131.77636719 594.07617188 C-157.88459094 604.10242486 -184.33903278 610.95090522 -212 615 C-213.02512695 615.16371094 -214.05025391 615.32742188 -215.10644531 615.49609375 C-274.3149434 624.83972371 -341.71137129 617.1201296 -396.80078125 593.36328125 C-399.14348622 592.36498573 -401.48509416 591.40780441 -403.85546875 590.48046875 C-415.0105226 586.0844986 -425.50662615 580.78732914 -436 575 C-436.85142578 574.53432617 -437.70285156 574.06865234 -438.58007812 573.58886719 C-463.29351499 560.01763883 -485.87602376 543.64397008 -507 525 C-507.94617188 524.16597656 -508.89234375 523.33195313 -509.8671875 522.47265625 C-511.91774349 520.65526317 -513.96283393 518.8323716 -516 517 C-512.43211245 517 -511.84215173 517.6388721 -509.0625 519.75 C-487.69622002 535.08199918 -463.53145557 547.60587887 -439 557 C-438.0625293 557.3604541 -437.12505859 557.7209082 -436.15917969 558.09228516 C-402.8159545 570.7839085 -368.52924338 578.70746166 -333 582 C-331.86280518 582.10586426 -331.86280518 582.10586426 -330.70263672 582.21386719 C-301.55349785 584.76029069 -272.11405213 582.92313352 -243.3125 578.125 C-242.5713092 578.00211609 -241.83011841 577.87923218 -241.06646729 577.75262451 C-225.2003315 575.08995858 -209.7117274 571.41901898 -194.33251953 566.70043945 C-192.23824778 566.05889993 -190.14086761 565.42839262 -188.04296875 564.79882812 C-175.64655818 561.04701563 -163.7333967 556.50150658 -152 551 C-151.11731445 550.59378418 -150.23462891 550.18756836 -149.32519531 549.76904297 C-121.96091116 537.148917 -96.51807845 521.89962572 -73 503 C-72.07445312 502.26652344 -71.14890625 501.53304688 -70.1953125 500.77734375 C-63.72309324 495.57939995 -57.59256148 490.0551135 -51.52050781 484.40283203 C-50.01359428 483.01254219 -48.49074754 481.64236717 -46.9609375 480.27734375 C-39.84708648 473.90917942 -33.31085762 467.16073753 -27 460 C-26.53658203 459.48131348 -26.07316406 458.96262695 -25.59570312 458.42822266 C1.00393412 428.6085333 23.85407911 393.49257729 38.17138672 356.08544922 C39.19786567 353.5020128 40.30121389 350.95429363 41.39453125 348.3984375 C44.13832698 341.83583046 46.36120914 335.15541211 48.5 328.375 C48.8916333 327.13427734 49.2832666 325.89355469 49.68676758 324.61523438 C50.4571558 322.16099075 51.22397729 319.70562399 51.98681641 317.24902344 C52.80003097 314.64125009 53.63469082 312.0425833 54.48046875 309.4453125 C61.19636901 288.01103075 64.2039199 264.2757377 65.85302734 241.93164062 C65.98816731 240.15551529 66.15842959 238.38215431 66.33203125 236.609375 C73.41650005 158.39683948 50.32124123 66.01470723 1.29345703 3.83569336 C0 2 0 2 0 0 Z " fill="#3D52A0" transform="translate(792,264)"/>
<path d="M0 0 C1.20427643 0.00248749 2.40855286 0.00497498 3.64932251 0.00753784 C62.54124493 0.19516468 119.31854047 12.64797406 172.9375 37.3125 C173.80745605 37.70373047 174.67741211 38.09496094 175.57373047 38.49804688 C203.62323706 51.11376509 229.40885482 67.85007889 253.9375 86.3125 C250.5175601 86.3125 249.29976904 85.59582247 246.359375 83.93359375 C245.45372803 83.42803955 244.54808105 82.92248535 243.61499023 82.40161133 C242.64891846 81.85657959 241.68284668 81.31154785 240.6875 80.75 C232.5496914 76.24054724 224.43988682 71.93579798 215.91796875 68.18847656 C213.73883206 67.22462764 211.57342867 66.23261348 209.40625 65.2421875 C189.41657655 56.25376843 168.2903819 49.3091757 147.06689453 43.86132812 C144.77869242 43.27156908 142.49710974 42.65917898 140.21484375 42.046875 C107.51909693 33.41558707 73.8104146 30.0819232 40.0625 30.125 C39.11119202 30.12593658 38.15988403 30.12687317 37.17974854 30.12783813 C-26.18163993 30.26274009 -87.96285954 44.77637806 -145.0625 72.3125 C-145.82095215 72.67585449 -146.5794043 73.03920898 -147.36083984 73.41357422 C-151.97160296 75.63239111 -156.52810718 77.94196054 -161.0625 80.3125 C-161.71718262 80.64975098 -162.37186523 80.98700195 -163.04638672 81.33447266 C-188.08482043 94.32334711 -211.49257278 111.2157731 -233.0625 129.3125 C-234.07449463 130.15482178 -235.08648926 130.99714355 -236.12915039 131.86499023 C-244.47807222 138.87438329 -252.33394631 146.27056357 -260.0144043 154.00366211 C-261.88433141 155.88438528 -263.76482638 157.75406819 -265.64648438 159.62304688 C-272.58069114 166.54968292 -278.9814182 173.6181196 -285.0625 181.3125 C-285.99687438 182.41467176 -286.93826769 183.51098536 -287.890625 184.59765625 C-309.36193423 209.22039957 -326.98496726 237.90346912 -341.09277344 267.30810547 C-342.0969131 269.38363081 -343.1289762 271.44365913 -344.1640625 273.50390625 C-358.35608366 302.12522043 -368.39165271 333.11270919 -375.0625 364.3125 C-375.2373291 365.11300781 -375.4121582 365.91351563 -375.59228516 366.73828125 C-378.08435434 378.30409811 -379.77069885 389.95584611 -381.25 401.6875 C-381.3771489 402.6865184 -381.3771489 402.6865184 -381.50686646 403.70571899 C-383.47290666 419.30188001 -384.24281223 434.73828003 -384.1875 450.4375 C-384.18561676 451.25086823 -384.18373352 452.06423645 -384.18179321 452.9022522 C-384.04284717 504.19220476 -375.3184436 553.03815191 -358.0625 601.3125 C-357.62744141 602.54299072 -357.62744141 602.54299072 -357.18359375 603.79833984 C-354.21624205 612.15028806 -350.88651227 620.2706365 -347.04052734 628.26220703 C-345.84939552 630.75924274 -344.68545982 633.26844295 -343.51953125 635.77734375 C-338.93795291 645.56995693 -334.36021267 655.09327068 -328.328125 664.08203125 C-327.70164062 665.18611328 -327.70164062 665.18611328 -327.0625 666.3125 C-327.3925 666.9725 -327.7225 667.6325 -328.0625 668.3125 C-336.29229059 657.64106125 -343.94226173 646.75455732 -351.0625 635.3125 C-351.44470703 634.70116211 -351.82691406 634.08982422 -352.22070312 633.45996094 C-368.5687223 607.17915057 -381.86589535 579.53269129 -392.0625 550.3125 C-392.40909668 549.3220166 -392.75569336 548.3315332 -393.11279297 547.31103516 C-400.76854541 525.14207613 -406.06878651 502.43693399 -409.875 479.3125 C-410.06989014 478.13478027 -410.26478027 476.95706055 -410.46557617 475.74365234 C-413.71347524 454.8935431 -414.47172544 434.1423974 -414.4375 413.0625 C-414.43711353 412.40453682 -414.43672707 411.74657364 -414.43632889 411.06867218 C-414.42069905 389.86923198 -413.78517424 369.21736038 -410.0625 348.3125 C-409.94370483 347.63193542 -409.82490967 346.95137085 -409.70251465 346.25018311 C-404.48876221 316.46942792 -397.36347602 285.48071776 -384.32421875 258.0859375 C-382.86394605 254.87605015 -381.62933701 251.60820901 -380.375 248.3125 C-377.05288544 239.79007836 -372.78363464 231.81698831 -368.41113281 223.79492188 C-367.06885787 221.32420291 -365.74784475 218.84302986 -364.4296875 216.359375 C-344.59108344 179.27566242 -318.40502707 146.64377157 -288.8125 116.9375 C-287.97275635 116.0930835 -287.1330127 115.24866699 -286.26782227 114.37866211 C-281.36047346 109.48391987 -276.35084564 104.79230801 -271.0625 100.3125 C-270.42699219 99.77028809 -269.79148437 99.22807617 -269.13671875 98.66943359 C-240.49785716 74.38834646 -208.86738254 54.57604336 -175.0625 38.3125 C-174.42844238 38.00586426 -173.79438477 37.69922852 -173.14111328 37.38330078 C-166.41828003 34.14762293 -159.61720481 31.27509757 -152.62109375 28.68359375 C-149.54879516 27.49986509 -146.53758718 26.23326543 -143.51171875 24.9375 C-136.93384494 22.18769558 -130.24846432 19.97110978 -123.4375 17.875 C-122.81244568 17.68240601 -122.18739136 17.48981201 -121.543396 17.29138184 C-103.42556348 11.73627547 -85.12568095 7.67604023 -66.4375 4.5625 C-65.26074707 4.36366211 -64.08399414 4.16482422 -62.87158203 3.95996094 C-42.01176137 0.65930265 -21.08745164 -0.07003732 0 0 Z " fill="#3D52A0" transform="translate(489.0625,62.6875)"/>
<path d="M0 0 C0.84550003 0.00234117 1.69100006 0.00468233 2.5621213 0.00709444 C3.45582563 0.005641 4.34952996 0.00418756 5.27031624 0.00269008 C8.30447839 -0.00099751 11.33859116 0.00252917 14.37275305 0.00595194 C16.55421038 0.00480121 18.73566752 0.00321401 20.91712424 0.0012247 C26.94244142 -0.00297524 32.96774289 -0.00087496 38.99306014 0.00221092 C45.47916841 0.00446213 51.96527387 0.00098679 58.45138159 -0.00176901 C70.43387051 -0.0061658 82.41635442 -0.00558966 94.39884363 -0.00285754 C105.46734725 -0.00034609 116.53584902 0.00031664 127.60435286 -0.00088018 C128.70388055 -0.00099476 128.70388055 -0.00099476 129.82562091 -0.00111165 C132.80088225 -0.00142297 135.77614358 -0.00174137 138.75140491 -0.00207142 C166.68642426 -0.00513339 194.62144039 -0.00235231 222.55645924 0.00302548 C247.39562128 0.00777092 272.23477819 0.00734722 297.07394019 0.00256449 C324.95500463 -0.00278595 352.83606623 -0.00491577 380.71713111 -0.00182325 C383.68741189 -0.00150251 386.65769268 -0.00118967 389.62797347 -0.00088018 C390.35937873 -0.0008011 391.09078398 -0.00072203 391.84435304 -0.00064055 C402.9074138 0.0004987 413.97047252 -0.00083668 425.03353301 -0.00335974 C437.60882468 -0.0062133 450.18411009 -0.00541968 462.75940105 -0.00007899 C469.18177933 0.00255821 475.60414719 0.00356277 482.02652541 0.00027186 C487.89675572 -0.00269074 493.76696585 -0.00109889 499.63719431 0.00424941 C501.76975636 0.00537376 503.90232009 0.00478203 506.03488108 0.00237362 C508.91600543 -0.00063254 511.7970591 0.00241645 514.67817965 0.00709444 C515.94291795 0.00358269 515.94291795 0.00358269 517.23320651 0 C522.95477034 0.01878523 522.95477034 0.01878523 525.18307105 1.13293558 C525.37057105 3.50793558 525.37057105 3.50793558 525.18307105 6.13293558 C521.30343032 8.71936274 518.09079724 8.41104914 513.59195319 8.38741118 C512.69961751 8.39061766 511.80728184 8.39382413 510.88790569 8.39712778 C507.8703855 8.40548962 504.85306063 8.39948199 501.83553687 8.39363199 C499.66131465 8.39664986 497.48709349 8.40053749 495.31287423 8.40522456 C489.31679659 8.41556031 483.32077837 8.41330863 477.32469574 8.40904397 C470.8665464 8.40658683 464.40841174 8.41557821 457.9502677 8.42308146 C445.29027829 8.43628346 432.63030778 8.43762432 419.97031286 8.43528119 C409.68531866 8.43345061 399.4003307 8.4352032 389.11533728 8.43950564 C387.63923351 8.44010803 386.16312974 8.44070923 384.68702596 8.44130924 C382.46285964 8.44221646 380.23869333 8.44312513 378.01452701 8.44404159 C357.32812129 8.45247454 336.64171793 8.45680442 315.95531073 8.45263487 C314.78487025 8.45240031 314.78487025 8.45240031 313.59078451 8.452161 C309.6356794 8.45135519 305.6805743 8.45050941 301.7254692 8.4496477 C300.93993061 8.44947661 300.15439202 8.44930553 299.34504922 8.44912925 C297.75649886 8.4487826 296.1679485 8.44843407 294.57939813 8.44808367 C269.85401329 8.44272483 245.12866409 8.45066011 220.40328589 8.46911722 C192.64341692 8.48981512 164.88357003 8.50056424 137.1236929 8.49654174 C134.16606354 8.49614637 131.20843418 8.49578483 128.25080481 8.49544436 C127.52252628 8.49535363 126.79424775 8.49526289 126.04390017 8.49516941 C115.03152977 8.49400158 104.01918161 8.50066579 93.00681677 8.51125628 C80.48904577 8.523282 67.97132742 8.52461814 55.45355561 8.51246611 C49.06138788 8.50655062 42.66931633 8.50555126 36.27715483 8.51746851 C30.43342001 8.52823713 24.58986271 8.52533266 18.74613652 8.51120683 C16.62438346 8.50853482 14.50261688 8.5110038 12.38087699 8.51894269 C9.51176204 8.5289386 6.6432775 8.52072197 3.77418891 8.50766569 C2.51906171 8.51862971 2.51906171 8.51862971 1.23857841 8.52981523 C-4.3849357 8.4762354 -4.3849357 8.4762354 -6.56682163 6.74231703 C-7.81692895 5.13293558 -7.81692895 5.13293558 -7.56692895 3.00793558 C-6.03340012 -0.82588649 -3.83052894 0.01261795 0 0 Z " fill="#FBFBFD" transform="translate(249.81692895293236,500.86706441640854)"/>
<path d="M0 0 C1.87580498 -0.01062721 1.87580498 -0.01062721 3.789505 -0.02146912 C5.17279089 -0.01917535 6.55607643 -0.01666566 7.93936157 -0.01396179 C9.39818076 -0.01830968 10.85699765 -0.02349309 12.31581116 -0.02944946 C16.27662036 -0.04284351 20.23733416 -0.04341761 24.1981616 -0.04088616 C27.50577647 -0.03981657 30.81337203 -0.04469961 34.12098277 -0.04949158 C41.92552867 -0.06058851 49.73002644 -0.06102336 57.53457642 -0.05497742 C65.58256023 -0.04893867 73.63036917 -0.06124565 81.67832315 -0.08254749 C88.59055361 -0.10016965 95.50272844 -0.10616382 102.41498053 -0.10290974 C106.54217827 -0.10109747 110.6692513 -0.10372729 114.79642868 -0.11762428 C118.6788622 -0.13020779 122.56102345 -0.12825372 126.44345284 -0.11521339 C127.86643758 -0.11284906 129.28944151 -0.11557722 130.71240425 -0.12383652 C132.65874888 -0.13431689 134.60517117 -0.12439349 136.55151367 -0.11352539 C137.63956488 -0.11369313 138.72761608 -0.11386087 139.84863853 -0.1140337 C144.54464548 0.46215375 147.8243716 2.26746192 151.27774048 5.44819641 C153.3865277 9.09802044 153.6988501 12.19257627 152.90274048 16.26069641 C150.81125524 20.29427508 149.15076109 22.65114368 144.90274048 24.26069641 C142.03505802 24.51796532 142.03505802 24.51796532 138.64689636 24.52812195 C137.36125793 24.53665192 136.07561951 24.54518188 134.75102234 24.55397034 C133.32836902 24.55327133 131.90571579 24.55234828 130.48306274 24.55122375 C128.98321193 24.55720878 127.48336419 24.56401427 125.98352051 24.57157898 C121.911221 24.58924728 117.83900555 24.59393466 113.76667142 24.59521055 C110.36700393 24.59711002 106.967356 24.60446797 103.56769603 24.61155474 C95.54745011 24.62783889 87.52724908 24.63272361 79.50698853 24.63130188 C71.23286537 24.63009991 62.95900283 24.65121266 54.68494564 24.68278921 C47.58079919 24.70893512 40.47673796 24.71966991 33.37254375 24.71839106 C29.12963794 24.717881 24.88696381 24.7235887 20.64410591 24.74474716 C16.65410019 24.76410173 12.66454786 24.76427342 8.67452621 24.7497139 C7.21080171 24.74762132 5.74704902 24.75235346 4.28337288 24.76443481 C2.28416184 24.77986693 0.28479646 24.76818943 -1.71443176 24.75517273 C-2.83290214 24.75626226 -3.95137251 24.7573518 -5.10373592 24.75847435 C-9.36574325 24.04976665 -11.84960558 21.924235 -14.40975952 18.51069641 C-15.47042692 15.03942128 -15.77292983 11.80967177 -15.09725952 8.26069641 C-11.56880785 1.85044159 -6.99367841 0.0132044 0 0 Z " fill="#FBFCFC" transform="translate(440.0972595214844,404.7393035888672)"/>
<path d="M0 0 C1.45911683 -0.00378587 2.91823006 -0.00928812 4.37733459 -0.01637268 C8.32988893 -0.03030985 12.2820071 -0.01917 16.23453712 -0.00266147 C20.37572172 0.01121215 24.51688159 0.00472632 28.65808105 0.00120544 C35.61180633 -0.00149486 42.56535881 0.01196335 49.51904297 0.03515625 C57.55231794 0.06176491 65.58530406 0.06351244 73.618608 0.05176789 C81.35430176 0.04097928 89.08989129 0.04718566 96.82557678 0.06132317 C100.11412528 0.06707359 103.40259726 0.06700773 106.69114685 0.06225777 C110.56543205 0.05747659 114.43940198 0.06763659 118.31362724 0.08921242 C119.73337681 0.09476497 121.15315678 0.09525965 122.5729084 0.09025955 C124.51479908 0.0842795 126.45672032 0.09868271 128.39855957 0.11402893 C130.02673992 0.11767377 130.02673992 0.11767377 131.68781281 0.12139225 C136.37807137 0.70652424 139.66089156 2.5111753 143.11132812 5.68920898 C145.21814761 9.33562733 145.53979526 12.43664259 144.73632812 16.50170898 C142.72129924 20.25383174 141.2816667 22.13814993 137.73632812 24.50170898 C134.97607613 24.75897789 134.97607613 24.75897789 131.56277466 24.76913452 C130.27009674 24.77766449 128.97741882 24.78619446 127.64556885 24.79498291 C126.20983875 24.79428386 124.77410874 24.79336078 123.33837891 24.79223633 C121.82882351 24.79821961 120.31927119 24.80502469 118.8097229 24.81259155 C114.70637359 24.83027963 110.60310766 24.83494812 106.49972391 24.83622313 C103.07525336 24.83812114 99.65080228 24.84547757 96.22633922 24.85256732 C88.14713931 24.86885968 80.06798398 24.87373551 71.98876953 24.87231445 C63.65275192 24.8711129 55.31699317 24.89221545 46.98104107 24.92380178 C39.82595988 24.94994814 32.6709633 24.96068244 25.51583469 24.95940363 C21.24161553 24.9588935 16.96762635 24.96460488 12.69345474 24.98575974 C8.67309467 25.00511457 4.65318457 25.00528578 0.63280869 24.99072647 C-0.84220282 24.98863379 -2.31724229 24.99336664 -3.79220581 25.00544739 C-5.80679752 25.02087834 -7.82154237 25.00920254 -9.83615112 24.9961853 C-10.96329466 24.99727484 -12.09043819 24.99836437 -13.25173759 24.99948692 C-17.54380263 24.29014366 -20.05346402 22.1729484 -22.57617188 18.68920898 C-23.89418271 14.49553813 -23.83523297 10.86710494 -22.13867188 6.81420898 C-15.9605697 -0.80545036 -9.24279671 -0.06815819 0 0 Z " fill="#FBFCFC" transform="translate(448.263671875,354.498291015625)"/>
<path d="M0 0 C1.28985809 -0.00860046 2.57971619 -0.01720093 3.90866089 -0.02606201 C5.34643514 -0.0304974 6.78420983 -0.03479575 8.22198486 -0.03897095 C9.72976878 -0.04687091 11.23755079 -0.0551398 12.74533081 -0.06375122 C17.70530386 -0.08998505 22.66528541 -0.10528088 27.62530518 -0.11953735 C29.33206437 -0.1248966 31.0388235 -0.13027411 32.74558258 -0.13566971 C39.84509423 -0.15730104 46.94460359 -0.17603782 54.04413986 -0.1872921 C64.22177506 -0.20353129 74.39902847 -0.23670518 84.57651973 -0.29369295 C91.73073482 -0.33238737 98.88484778 -0.35192423 106.03916478 -0.35721266 C110.3129527 -0.36086703 114.58633354 -0.37289677 118.86000824 -0.4053154 C122.88204338 -0.43538732 126.90342498 -0.44171135 130.92554855 -0.42993164 C132.40015728 -0.42971082 133.87479624 -0.43802287 135.34930038 -0.45558548 C147.87936053 -0.59668112 147.87936053 -0.59668112 151.81506348 2.56536865 C154.8389318 6.22581585 155.24148798 8.34041162 155.17218018 13.12265015 C154.76270932 16.92487948 152.95303053 19.21507858 150.2369976 21.76596832 C147.23420697 23.59103757 145.17174626 23.53668241 141.66635132 23.54830933 C140.3737439 23.55965912 139.08113647 23.57100891 137.74935913 23.58270264 C136.31884704 23.58005935 134.88833552 23.57708812 133.45782471 23.57382202 C131.94974132 23.58116228 130.44166356 23.58974838 128.93359375 23.5994873 C124.83846734 23.62171816 120.74354206 23.62463317 116.64836359 23.62273979 C113.22889857 23.62262015 109.80947626 23.63118184 106.39002311 23.63951731 C98.3217744 23.65875749 90.25362914 23.66163316 82.18536377 23.65487671 C73.86461254 23.64823694 65.54430472 23.67109606 57.22364342 23.70819044 C50.07785459 23.7388901 42.93220836 23.75024714 35.7863549 23.74635363 C31.51934132 23.74428618 27.25267268 23.74976417 22.98572159 23.77424622 C18.97181704 23.79651513 14.95863293 23.79463498 10.94472504 23.7743187 C9.47335882 23.7709087 8.0019441 23.77599748 6.53064346 23.79030228 C-5.96629595 23.90339973 -5.96629595 23.90339973 -9.90621948 20.802948 C-12.90941898 17.08597745 -13.44104712 13.98057423 -13.40594482 9.22421265 C-12.76477953 5.53054305 -10.6872537 3.7317106 -8.04656982 1.15390015 C-5.29523422 -0.22176765 -3.08068575 0.0152454 0 0 Z " fill="#FEFEFE" transform="translate(438.04656982421875,455.8460998535156)"/>
<path d="M0 0 C1.27065656 0.00308298 1.27065656 0.00308298 2.56698295 0.00622824 C3.46237566 0.0044752 4.35776836 0.00272216 5.28029418 0.000916 C8.32019815 -0.00378461 11.36005513 -0.00126816 14.3999612 0.00114992 C16.58554347 -0.00071601 18.7711254 -0.00301583 20.95670679 -0.0057154 C26.99342412 -0.01186673 33.03012766 -0.01169592 39.06684741 -0.01052102 C45.56522682 -0.01031785 52.0636017 -0.01582771 58.56197903 -0.02057859 C71.30478828 -0.02912235 84.0475936 -0.0316472 96.79040541 -0.03219097 C107.14219732 -0.03264983 117.49398773 -0.03470461 127.84577915 -0.0378916 C130.82136256 -0.03878909 133.79694598 -0.0396789 136.77252939 -0.04056647 C137.51218601 -0.04078752 138.25184264 -0.04100857 139.01391309 -0.04123632 C159.82963503 -0.04739373 180.64535644 -0.05133655 201.46107933 -0.05089304 C202.63917856 -0.05086967 202.63917856 -0.05086967 203.84107777 -0.05084583 C207.82216213 -0.05076272 211.8032465 -0.05066368 215.78433087 -0.05056112 C216.9704008 -0.0505312 216.9704008 -0.0505312 218.18043174 -0.05050068 C219.77944764 -0.05046025 221.37846354 -0.05041845 222.97747944 -0.05037529 C247.86363826 -0.04976234 272.74978346 -0.05727147 297.63593838 -0.07094786 C325.56974122 -0.08629262 353.50353511 -0.09491505 381.43734244 -0.09398463 C384.4132402 -0.09391 387.38913797 -0.09386129 390.36503574 -0.09383032 C391.09782415 -0.09381866 391.83061256 -0.09380701 392.58560668 -0.093795 C404.40241109 -0.09376417 416.21920372 -0.10016293 428.03600463 -0.10876258 C439.90228059 -0.11721992 451.76853778 -0.11807184 463.63481512 -0.11165326 C470.06935713 -0.10837257 476.50385626 -0.10838674 482.93839428 -0.11700651 C488.81974626 -0.12480456 494.70102086 -0.1235095 500.5823708 -0.11472238 C502.71897104 -0.11317248 504.85557687 -0.11505872 506.99217054 -0.12058245 C509.87881192 -0.12755558 512.76517524 -0.12241821 515.65180656 -0.11402628 C516.49656977 -0.11899446 517.34133298 -0.12396264 518.21169508 -0.12908137 C523.94401917 -0.09343347 523.94401917 -0.09343347 526.17231533 2.13486269 C525.63660104 5.67057698 525.63660104 5.67057698 524.17231533 7.13486269 C521.36610479 7.23570294 518.58441044 7.27030716 515.7776477 7.26349714 C514.43455865 7.2661267 514.43455865 7.2661267 513.06433648 7.26880938 C510.02443251 7.27351 506.98457553 7.27099354 503.94466946 7.26857546 C501.75908719 7.27044139 499.57350526 7.27274122 497.38792387 7.27544078 C491.35120654 7.28159212 485.31450299 7.2814213 479.27778324 7.28024641 C472.77940384 7.28004324 466.28102896 7.2855531 459.78265163 7.29030398 C447.03984238 7.29884774 434.29703706 7.30137258 421.55422524 7.30191635 C411.20243333 7.30237522 400.85064293 7.30442999 390.49885151 7.30761698 C387.5232681 7.30851447 384.54768468 7.30940428 381.57210127 7.31029186 C380.46261633 7.31062343 380.46261633 7.31062343 379.33071756 7.3109617 C358.51499563 7.31711911 337.69927422 7.32106194 316.88355133 7.32061842 C316.09815184 7.32060284 315.31275236 7.32058726 314.50355289 7.32057121 C310.52246852 7.3204881 306.54138416 7.32038906 302.56029979 7.3202865 C301.37422986 7.32025659 301.37422986 7.32025659 300.16419892 7.32022606 C298.56518302 7.32018563 296.96616712 7.32014383 295.36715122 7.32010067 C270.4809924 7.31948772 245.5948472 7.32699686 220.70869228 7.34067324 C192.77488944 7.35601801 164.84109555 7.36464044 136.90728822 7.36371002 C133.93139045 7.36363538 130.95549269 7.36358668 127.97959492 7.3635557 C127.24680651 7.36354405 126.5140181 7.36353239 125.75902398 7.36352038 C113.94221957 7.36348955 102.12542694 7.36988831 90.30862603 7.37848796 C78.44235007 7.3869453 66.57609288 7.38779722 54.70981554 7.38137864 C48.27527353 7.37809795 41.8407744 7.37811212 35.40623638 7.38673189 C29.5248844 7.39452995 23.6436098 7.39323489 17.76225986 7.38444776 C15.62565962 7.38289786 13.48905379 7.38478411 11.35246012 7.39030784 C8.46581874 7.39728097 5.57945542 7.39214359 2.6928241 7.38375166 C1.84806089 7.38871984 1.00329768 7.39368802 0.13293558 7.39880675 C-5.59938851 7.36315885 -5.59938851 7.36315885 -7.82768467 5.13486269 C-6.9994848 -0.33125647 -5.24559383 0.01901185 0 0 Z " fill="#FEFEFE" transform="translate(249.82768467068672,519.865137308836)"/>
<path d="M0 0 C13 0 13 0 16.4375 3.41796875 C17.33999567 4.98088443 18.19199756 6.5737045 19 8.1875 C19.97824979 9.92369401 20.95745331 11.65935092 21.9375 13.39453125 C22.43121094 14.30799316 22.92492187 15.22145508 23.43359375 16.16259766 C26.10958996 21.00992121 29.06885486 25.67929557 32 30.375 C32.54011719 31.25953857 33.08023438 32.14407715 33.63671875 33.05541992 C36.2093419 37.25334797 38.78849082 41.24809264 42 45 C43.55859465 42.51047415 45.11640612 40.02047267 46.67236328 37.52929688 C48.02546866 35.36931183 49.38461273 33.21309892 50.74951172 31.06054688 C54.13943116 25.69284571 57.41938891 20.31914031 60.43359375 14.73046875 C60.97346924 13.76391357 61.51334473 12.7973584 62.06958008 11.80151367 C63.08473445 9.97308856 64.06206143 8.12299507 64.99487305 6.2512207 C66.4140625 3.75 66.4140625 3.75 70 0 C74.29 0 78.58 0 83 0 C83 28.71 83 57.42 83 87 C78.71 87 74.42 87 70 87 C70 66.21 70 45.42 70 24 C62.62844862 36.02400621 62.62844862 36.02400621 55.3984375 48.1328125 C54.39190871 49.79765178 53.38416021 51.46175447 52.375 53.125 C51.88 53.99769531 51.385 54.87039063 50.875 55.76953125 C47.25168496 61.62753044 47.25168496 61.62753044 43.71508789 62.67993164 C40.17685795 62.8461283 37.85799166 62.65571465 35.01171875 60.48046875 C34.57472656 59.72378906 34.13773437 58.96710937 33.6875 58.1875 C32.86185547 56.83591797 32.86185547 56.83591797 32.01953125 55.45703125 C31.71225098 54.9254541 31.4049707 54.39387695 31.08837891 53.84619141 C29.799525 51.659939 28.44112306 49.5250314 27.07421875 47.38671875 C24.02070652 42.60891421 21.00459692 37.80867329 18 33 C16.35 30.36 14.7 27.72 13 25 C13 45.46 13 65.92 13 87 C8.71 87 4.42 87 0 87 C0 58.29 0 29.58 0 0 Z " fill="#FDFEFE" transform="translate(244,550)"/>
<path d="M0 0 C4.62 0 9.24 0 14 0 C20.49792422 16.13893717 26.88742532 32.31573601 33.13452148 48.5534668 C34.45756811 51.98961992 35.78636447 55.42351724 37.11523438 58.85742188 C37.9717029 61.08059485 38.82783552 63.30389727 39.68359375 65.52734375 C40.07421494 66.53474106 40.46483612 67.54213837 40.86729431 68.58006287 C43.1968048 74.65617482 45.20330908 80.74491986 47 87 C42.38 87 37.76 87 33 87 C30.36 80.4 27.72 73.8 25 67 C12.79 67 0.58 67 -12 67 C-14.26171582 73.20677779 -14.26171582 73.20677779 -16.51733398 79.41577148 C-16.79907471 80.18477783 -17.08081543 80.95378418 -17.37109375 81.74609375 C-17.65911865 82.53685303 -17.94714355 83.3276123 -18.24389648 84.14233398 C-19 86 -19 86 -20 87 C-22.18639453 87.07258946 -24.37500389 87.08373783 -26.5625 87.0625 C-27.76003906 87.05347656 -28.95757813 87.04445313 -30.19140625 87.03515625 C-31.58166016 87.01775391 -31.58166016 87.01775391 -33 87 C-32.40636479 82.67678706 -31.35522919 78.92871168 -29.75 74.875 C-29.29882812 73.7303125 -28.84765625 72.585625 -28.3828125 71.40625 C-27.15589705 68.38401758 -25.89863763 65.37774832 -24.625 62.375 C-22.07118306 56.31972336 -19.8332293 50.16335213 -17.58642578 43.98974609 C-15.64204727 38.67201344 -13.54736883 33.44848474 -11.3203125 28.2421875 C-9.22962221 23.10824388 -7.36388322 17.89123011 -5.49804688 12.671875 C-5.21767578 11.89585937 -4.93730469 11.11984375 -4.6484375 10.3203125 C-4.40270996 9.63211426 -4.15698242 8.94391602 -3.90380859 8.23486328 C-2.76490082 5.41866615 -1.3585343 2.7170686 0 0 Z " fill="#FBFCFC" transform="translate(559,550)"/>
<path d="M0 0 C4.29 0 8.58 0 13 0 C13.33 13.53 13.66 27.06 14 41 C16.75085938 38.0403125 19.50171875 35.080625 22.3359375 32.03125 C24.57934328 29.67178608 26.83181951 27.32181525 29.09100342 24.97749329 C31.46105654 22.51301143 33.81256204 20.03581664 36.125 17.51708984 C53.11929049 -0.95373307 53.11929049 -0.95373307 62.91592407 -1.3963623 C66.39151317 -1.23210021 69.60487202 -0.77012585 73 0 C66.09205703 8.40155227 58.39935178 16.047219 50.125 23.09765625 C45.55387881 27.18981805 41.301121 31.62772075 37 36 C38.43901227 39.11830159 40.17887179 41.70431915 42.2734375 44.421875 C42.92779785 45.27499268 43.5821582 46.12811035 44.25634766 47.00708008 C45.30508057 48.36482544 45.30508057 48.36482544 46.375 49.75 C47.82861805 51.64415298 49.2817382 53.53868815 50.734375 55.43359375 C51.45560547 56.37315918 52.17683594 57.31272461 52.91992188 58.28076172 C55.84627133 62.10631104 58.74023446 65.95554134 61.625 69.8125 C62.08438965 70.42641602 62.5437793 71.04033203 63.01708984 71.67285156 C63.89213724 72.84278321 64.76572525 74.01380813 65.63769531 75.18603516 C66.6369507 76.5165849 67.64852057 77.83790985 68.66699219 79.15380859 C69.49312012 80.22816162 69.49312012 80.22816162 70.3359375 81.32421875 C70.84431152 81.97865967 71.35268555 82.63310059 71.87646484 83.30737305 C73 85 73 85 73 87 C67.58781381 88.13866774 62.32251788 88.88465954 57 87 C51.78215591 83.00241505 48.32662808 77.0873077 44.76611328 71.65332031 C42.360534 68.03929824 39.78162322 64.56710175 37.18994141 61.08520508 C35.96034706 59.43300763 34.73959352 57.77418507 33.52880859 56.1081543 C32.97918457 55.35187744 32.42956055 54.59560059 31.86328125 53.81640625 C31.14072144 52.81782593 31.14072144 52.81782593 30.40356445 51.79907227 C29.04257521 50.0545724 27.59866698 48.52657777 26 47 C20.91643974 49.72196666 16.62877201 52.73616955 14 58 C12.12614001 67.46676812 12.67278653 77.40383563 13 87 C8.71 87 4.42 87 0 87 C0 58.29 0 29.58 0 0 Z " fill="#FCFDFD" transform="translate(700,550)"/>
<path d="M0 0 C2.08016627 1.73985277 3.55542407 3.24140588 4.91015625 5.59765625 C4.74873192 9.21917593 2.89832042 10.93611922 0.34765625 13.34765625 C-0.61333984 14.26804687 -0.61333984 14.26804687 -1.59375 15.20703125 C-2.08746094 15.6659375 -2.58117187 16.12484375 -3.08984375 16.59765625 C-3.70859375 15.89640625 -4.32734375 15.19515625 -4.96484375 14.47265625 C-10.80701314 8.77735704 -16.53749965 5.22855042 -24.83984375 4.97265625 C-31.52950194 5.28783449 -34.41595855 6.92377105 -39.08984375 11.59765625 C-39.5228477 13.59581676 -39.5228477 13.59581676 -39.52734375 15.84765625 C-39.56730469 16.5953125 -39.60726562 17.34296875 -39.6484375 18.11328125 C-38.82123874 21.79229112 -36.93379854 24.23196543 -34.08984375 26.59765625 C-31.48276907 27.84233323 -28.83291586 28.50315321 -26.02734375 29.16015625 C-24.50523432 29.56555121 -22.9843952 29.9757448 -21.46484375 30.390625 C-20.34916016 30.69105713 -20.34916016 30.69105713 -19.2109375 30.99755859 C-9.57979051 33.72239277 -1.45173944 37.70402509 4.58984375 45.8671875 C7.55149628 51.99202513 7.0668253 60.24156347 4.87890625 66.58984375 C0.9619429 73.74918232 -4.66726051 78.03547703 -12.296875 80.73046875 C-22.93311019 83.16223416 -36.55309297 83.35944318 -46.08984375 77.59765625 C-51.14302699 73.77267727 -55.23563033 70.30608309 -58.08984375 64.59765625 C-55.44984375 61.62765625 -52.80984375 58.65765625 -50.08984375 55.59765625 C-46.42423679 57.43045973 -45.58169728 57.95274767 -43.33984375 60.97265625 C-38.88678012 66.22639389 -35.15962544 68.2962708 -28.23046875 68.9765625 C-26.8090913 69.0317346 -25.38705892 69.07193017 -23.96484375 69.09765625 C-23.28373535 69.11626709 -22.60262695 69.13487793 -21.90087891 69.15405273 C-16.85225222 69.09077596 -13.96144862 67.76846617 -10.08984375 64.59765625 C-7.57733792 60.8288975 -7.55968289 59.06615491 -8.08984375 54.59765625 C-11.67695719 48.4995634 -16.46269315 46.57591016 -23.08984375 44.59765625 C-25.2732361 44.10010745 -27.46101332 43.62148897 -29.65234375 43.16015625 C-38.88047081 41.1299683 -45.73171339 37.53181082 -51.08984375 29.59765625 C-54.47274393 23.7339626 -54.92036695 18.21320314 -54.08984375 11.59765625 C-51.89806393 3.69897801 -45.7633372 -1.19824768 -38.96484375 -5.27734375 C-25.74499916 -10.45032641 -11.41399 -7.76814202 0 0 Z " fill="#FCFCFD" transform="translate(674.08984375,556.40234375)"/>
<path d="M0 0 C5.37475225 -1.04357499 10.72174095 -1.84837911 16 0 C20.69916027 3.76143546 23.53771824 9.39629757 26.52050781 14.52636719 C29.00883218 18.68671413 31.82192487 22.61060283 34.625 26.5625 C35.13450195 27.3062085 35.64400391 28.04991699 36.16894531 28.81616211 C37.39459984 30.58091246 38.69078709 32.29631741 40 34 C40.66 34 41.32 34 42 34 C43.60193095 31.86620993 43.60193095 31.86620993 45.23046875 29.1015625 C45.86919922 28.06386719 46.50792969 27.02617188 47.16601562 25.95703125 C47.83310547 24.85746094 48.50019531 23.75789062 49.1875 22.625 C51.13727732 19.43163336 53.09433278 16.24435527 55.0793457 13.07275391 C56.33467577 11.06441728 57.56620013 9.04095021 58.77026367 7.00146484 C62.87137686 0.4482895 62.87137686 0.4482895 65.95336914 -0.77587891 C67.96484375 -0.9765625 67.96484375 -0.9765625 71.9375 -0.625 C72.62134766 -0.57988281 73.30519531 -0.53476562 74.00976562 -0.48828125 C75.67704924 -0.37168799 77.33974506 -0.19230752 79 0 C76.55035128 4.75747567 73.85492339 9.32266254 70.88208008 13.77319336 C70.06030302 15.00409548 69.24951467 16.24238229 68.44799805 17.48657227 C65.80024612 21.53860335 62.97318183 25.25183539 59.828125 28.93359375 C45.1450155 47.05772547 45.86668557 64.63410792 47 87 C42.71 87 38.42 87 34 87 C34.04882324 85.36140015 34.04882324 85.36140015 34.09863281 83.68969727 C35.7637687 57.16291551 35.7637687 57.16291551 24.3984375 34.4921875 C23.55297363 33.64865723 23.55297363 33.64865723 22.69042969 32.78808594 C19.65694943 29.5793613 17.29085561 25.89230407 14.8125 22.25 C13.82668838 20.84721954 12.83845685 19.44613615 11.84765625 18.046875 C9.14124935 14.20291277 6.43815511 10.35675362 3.75 6.5 C3.02296875 5.4584375 2.2959375 4.416875 1.546875 3.34375 C0 1 0 1 0 0 Z " fill="#FCFDFD" transform="translate(341,550)"/>
<path d="M0 0 C20.79 0 41.58 0 63 0 C63 4.29 63 8.58 63 13 C54.75 13 46.5 13 38 13 C38 37.42 38 61.84 38 87 C33.38 87 28.76 87 24 87 C24 62.58 24 38.16 24 13 C16.08 13 8.16 13 0 13 C0 8.71 0 4.42 0 0 Z " fill="#FAFBFC" transform="translate(461,550)"/>
<path d="M0 0 C3.0979001 1.54895005 3.2182833 3.97369972 4.3125 7.1953125 C4.52688721 7.82098114 4.74127441 8.44664978 4.9621582 9.09127808 C5.64837029 11.10023453 6.32406094 13.11256691 7 15.125 C7.45509061 16.45855142 7.91081256 17.79188756 8.3671875 19.125 C10.38629416 25.0543342 12.27796187 30.97286656 14 37 C5.09 37 -3.82 37 -13 37 C-11.00278762 30.34262539 -8.9358542 23.86351993 -6.5 17.375 C-6.20480469 16.5809375 -5.90960937 15.786875 -5.60546875 14.96875 C-4.74053707 12.64448425 -3.87110699 10.32195757 -3 8 C-2.70738281 7.21915039 -2.41476562 6.43830078 -2.11328125 5.63378906 C-1.40930419 3.75569063 -0.70471961 1.87781993 0 0 Z " fill="#475CA3" transform="translate(565,566)"/>
</svg>
